<?xml version="1.0" encoding="UTF-8" standalone="no"?>
<svg
   xmlns:dc="http://purl.org/dc/elements/1.1/"
   xmlns:cc="http://creativecommons.org/ns#"
   xmlns:rdf="http://www.w3.org/1999/02/22-rdf-syntax-ns#"
   xmlns:svg="http://www.w3.org/2000/svg"
   xmlns="http://www.w3.org/2000/svg"
   xmlns:sodipodi="http://sodipodi.sourceforge.net/DTD/sodipodi-0.dtd"
   xmlns:inkscape="http://www.inkscape.org/namespaces/inkscape"
   viewBox="0 0 400 225"
   version="1.1"
   id="svg64"
   sodipodi:docname="icon.svg"
   inkscape:version="0.92.4 (5da689c313, 2019-01-14)">
  <metadata
     id="metadata68">
    <rdf:RDF>
      <cc:Work
         rdf:about="">
        <dc:format>image/svg+xml</dc:format>
        <dc:type
           rdf:resource="http://purl.org/dc/dcmitype/StillImage" />
      </cc:Work>
    </rdf:RDF>
  </metadata>
  <sodipodi:namedview
     pagecolor="#ffffff"
     bordercolor="#666666"
     borderopacity="1"
     objecttolerance="10"
     gridtolerance="10"
     guidetolerance="10"
     inkscape:pageopacity="0"
     inkscape:pageshadow="2"
     inkscape:window-width="1920"
     inkscape:window-height="1129"
     id="namedview66"
     showgrid="false"
     inkscape:zoom="3.17"
     inkscape:cx="211.61801"
     inkscape:cy="143.6591"
     inkscape:window-x="-8"
     inkscape:window-y="-8"
     inkscape:window-maximized="1"
     inkscape:current-layer="g58" />
  <defs
     id="defs4">
    <style
       id="style2">
      .cls-1 {
        fill: #f06060;
      }

      .cls-2 {
        opacity: 0.15;
      }

      .cls-3 {
        fill: #231f20;
      }

      .cls-4 {
        fill: #fff;
      }

      .cls-5 {
        fill: #79aad3;
      }

      .cls-6 {
        fill: #b0afad;
      }

      .cls-7 {
        fill: none;
      }
    </style>
  </defs>
  <title
     id="title6">fill in the blanks</title>
  <g
     id="Layer_2"
     data-name="Layer 2">
    <g
       id="fill_in_the_blanks"
       data-name="fill in the blanks">
      <g
         id="g58">
        <path
           class="cls-5"
           d="m 186.36219,140.71221 h -22.87846 a 3.6712682,2.33 0 0 1 -3.67127,-2.33 v -4.86 a 3.6712682,2.33 0 0 1 3.67127,-2.33 h 22.87846 a 3.6712682,2.33 0 0 1 3.67127,2.33 v 4.85 a 3.6712682,2.33 0 0 1 -3.67127,2.34 z m -22.95724,-7.19 v 4.85 h 22.95724 v -4.85 z"
           id="path893"
           inkscape:connector-curvature="0"
           style="fill:#79aad3;stroke-width:1.25524962" />
        <rect
           class="cls-1"
           x="134.42999"
           y="26.709999"
           width="139.14"
           height="173.59"
           id="rect8"
           style="fill:#f06060" />
        <g
           id="g16">
          <g
             class="cls-2"
             id="g12"
             style="opacity:0.15">
            <rect
               class="cls-3"
               x="150.44"
               y="43.369999"
               width="112.96"
               height="146.09"
               id="rect10"
               style="fill:#231f20" />
          </g>
          <rect
             class="cls-4"
             x="147.52"
             y="40.459999"
             width="112.96"
             height="146.09"
             id="rect14"
             style="fill:#ffffff" />
        </g>
        <path
           class="cls-5"
           d="m 202.44546,72.52 h -25.56 a 2.33,2.33 0 0 1 -2.33,-2.33 v -4.66 a 2.51,2.51 0 0 1 2.33,-2.53 h 25.56 a 2.51,2.51 0 0 1 2.33,2.53 v 4.66 a 2.33,2.33 0 0 1 -2.33,2.33 z m -25.47,-7.19 a 0.38,0.38 0 0 0 -0.09,0.19 v 4.66 h 25.56 v -4.65 a 0.38,0.38 0 0 0 -0.09,-0.19 z"
           id="path18"
           inkscape:connector-curvature="0"
           style="fill:#00ff00" />
        <path
           class="cls-5"
           d="m 205.36909,98 h -14.52 a 2.33,2.33 0 0 1 -2.33,-2.33 v -4.86 a 2.33,2.33 0 0 1 2.33,-2.33 h 14.52 a 2.33,2.33 0 0 1 2.33,2.33 v 4.85 a 2.33,2.33 0 0 1 -2.33,2.34 z m -14.57,-7.19 v 4.85 h 14.57 v -4.85 z"
           id="path34"
           inkscape:connector-curvature="0"
           style="fill:#00ff00" />
        <path
           class="cls-5"
           d="m 204.99656,141.52 h -8.66 a 2.33,2.33 0 0 1 -2.33,-2.33 v -4.86 a 2.33,2.33 0 0 1 2.33,-2.33 h 8.66 a 2.33,2.33 0 0 1 2.33,2.33 v 4.85 a 2.33,2.33 0 0 1 -2.33,2.34 z m -8.66,-7.19 v 4.85 h 8.66 v -4.85 z"
           id="path50"
           inkscape:connector-curvature="0"
           style="fill:#00ff00" />
        <path
           style="fill:#ff0000"
           inkscape:connector-curvature="0"
           id="path875"
           d="m 222.31546,72.52 h -14.52 a 2.33,2.33 0 0 1 -2.33,-2.33 v -4.86 a 2.33,2.33 0 0 1 2.33,-2.33 h 14.52 a 2.33,2.33 0 0 1 2.33,2.33 v 4.85 a 2.33,2.33 0 0 1 -2.33,2.34 z m -14.57,-7.19 v 4.85 h 14.57 v -4.85 z"
           class="cls-5" />
        <path
           style="fill:#d40000"
           inkscape:connector-curvature="0"
           id="path877"
           d="m 171.03442,72.52 h -8.66 a 2.33,2.33 0 0 1 -2.33,-2.33 v -4.86 a 2.33,2.33 0 0 1 2.33,-2.33 h 8.66 a 2.33,2.33 0 0 1 2.33,2.33 v 4.85 a 2.33,2.33 0 0 1 -2.33,2.34 z m -8.66,-7.19 v 4.85 h 8.66 v -4.85 z"
           class="cls-5" />
        <path
           class="cls-5"
           d="m 242.50473,72.52 h -14.52 a 2.33,2.33 0 0 1 -2.33,-2.33 v -4.86 a 2.33,2.33 0 0 1 2.33,-2.33 h 14.52 a 2.33,2.33 0 0 1 2.33,2.33 v 4.85 a 2.33,2.33 0 0 1 -2.33,2.34 z m -14.57,-7.19 v 4.85 h 14.57 v -4.85 z"
           id="path879"
           inkscape:connector-curvature="0"
           style="fill:#ff0000" />
        <path
           style="fill:#00ff00"
           inkscape:connector-curvature="0"
           id="path881"
           d="m 203.75731,119.52 h -25.56 a 2.33,2.33 0 0 1 -2.33,-2.33 v -4.66 a 2.51,2.51 0 0 1 2.33,-2.53 h 25.56 a 2.51,2.51 0 0 1 2.33,2.53 v 4.66 a 2.33,2.33 0 0 1 -2.33,2.33 z m -25.47,-7.19 a 0.38,0.38 0 0 0 -0.09,0.19 v 4.66 h 25.56 v -4.65 a 0.38,0.38 0 0 0 -0.09,-0.19 z"
           class="cls-5" />
        <path
           class="cls-5"
           d="m 185.61896,98 h -25.56 a 2.33,2.33 0 0 1 -2.33,-2.33 v -4.66 a 2.51,2.51 0 0 1 2.33,-2.53 h 25.56 a 2.51,2.51 0 0 1 2.33,2.53 v 4.66 a 2.33,2.33 0 0 1 -2.33,2.33 z m -25.47,-7.19 a 0.38,0.38 0 0 0 -0.09,0.19 v 4.66 h 25.56 v -4.65 a 0.38,0.38 0 0 0 -0.09,-0.19 z"
           id="path883"
           inkscape:connector-curvature="0"
           style="fill:#ff0000" />
        <path
           class="cls-5"
           d="m 171.77256,119.52 h -8.66 a 2.33,2.33 0 0 1 -2.33,-2.33 v -4.86 a 2.33,2.33 0 0 1 2.33,-2.33 h 8.66 a 2.33,2.33 0 0 1 2.33,2.33 v 4.85 a 2.33,2.33 0 0 1 -2.33,2.34 z m -8.66,-7.19 v 4.85 h 8.66 v -4.85 z"
           id="path887"
           inkscape:connector-curvature="0"
           style="fill:#00ff00" />
        <path
           style="fill:#ff0000"
           inkscape:connector-curvature="0"
           id="path889"
           d="m 220.13852,98 h -8.66 a 2.33,2.33 0 0 1 -2.33,-2.33 v -4.86 a 2.33,2.33 0 0 1 2.33,-2.33 h 8.66 a 2.33,2.33 0 0 1 2.33,2.33 v 4.85 a 2.33,2.33 0 0 1 -2.33,2.34 z m -8.66,-7.19 v 4.85 h 8.66 v -4.85 z"
           class="cls-5" />
        <path
           style="fill:#ff0000"
           inkscape:connector-curvature="0"
           id="path891"
           d="m 245.64665,119.52 h -14.52 a 2.33,2.33 0 0 1 -2.33,-2.33 v -4.86 a 2.33,2.33 0 0 1 2.33,-2.33 h 14.52 a 2.33,2.33 0 0 1 2.33,2.33 v 4.85 a 2.33,2.33 0 0 1 -2.33,2.34 z m -14.57,-7.19 v 4.85 h 14.57 v -4.85 z"
           class="cls-5" />
        <path
           style="fill:#00ff00"
           inkscape:connector-curvature="0"
           id="path895"
           d="m 224.70204,119.52 h -14.52 a 2.33,2.33 0 0 1 -2.33,-2.33 v -4.86 a 2.33,2.33 0 0 1 2.33,-2.33 h 14.52 a 2.33,2.33 0 0 1 2.33,2.33 v 4.85 a 2.33,2.33 0 0 1 -2.33,2.34 z m -14.57,-7.19 v 4.85 h 14.57 v -4.85 z"
           class="cls-5" />
        <path
           class="cls-5"
           d="m 240.70032,98 h -14.52 a 2.33,2.33 0 0 1 -2.33,-2.33 v -4.86 a 2.33,2.33 0 0 1 2.33,-2.33 h 14.52 a 2.33,2.33 0 0 1 2.33,2.33 v 4.85 a 2.33,2.33 0 0 1 -2.33,2.34 z m -14.57,-7.19 v 4.85 h 14.57 v -4.85 z"
           id="path897"
           inkscape:connector-curvature="0"
           style="fill:#ff0000" />
        <path
           class="cls-5"
           d="m 246.90848,141.52 h -14.52 a 2.33,2.33 0 0 1 -2.33,-2.33 v -4.86 a 2.33,2.33 0 0 1 2.33,-2.33 h 14.52 a 2.33,2.33 0 0 1 2.33,2.33 v 4.85 a 2.33,2.33 0 0 1 -2.33,2.34 z m -14.57,-7.19 v 4.85 h 14.57 v -4.85 z"
           id="path899"
           inkscape:connector-curvature="0"
           style="fill:#00ff00" />
        <path
           class="cls-5"
           d="m 225.96387,141.52 h -14.52 a 2.33,2.33 0 0 1 -2.33,-2.33 v -4.86 a 2.33,2.33 0 0 1 2.33,-2.33 h 14.52 a 2.33,2.33 0 0 1 2.33,2.33 v 4.85 a 2.33,2.33 0 0 1 -2.33,2.34 z m -14.57,-7.19 v 4.85 h 14.57 v -4.85 z"
           id="path901"
           inkscape:connector-curvature="0"
           style="fill:#00ff00" />
        <path
           class="cls-5"
           d="m 188.96495,141.52 h -25.56 a 2.33,2.33 0 0 1 -2.33,-2.33 v -4.66 a 2.51,2.51 0 0 1 2.33,-2.53 h 25.56 a 2.51,2.51 0 0 1 2.33,2.53 v 4.66 a 2.33,2.33 0 0 1 -2.33,2.33 z m -25.47,-7.19 a 0.38,0.38 0 0 0 -0.09,0.19 v 4.66 h 25.56 v -4.65 a 0.38,0.38 0 0 0 -0.09,-0.19 z"
           id="path903"
           inkscape:connector-curvature="0"
           style="fill:#00ff00" />
        <text
           xml:space="preserve"
           style="font-style:normal;font-variant:normal;font-weight:normal;font-stretch:normal;font-size:18.04915619px;line-height:1.25;font-family:sans-serif;-inkscape-font-specification:'sans-serif, Normal';font-variant-ligatures:normal;font-variant-caps:normal;font-variant-numeric:normal;font-feature-settings:normal;text-align:start;letter-spacing:0px;word-spacing:0px;writing-mode:lr-tb;text-anchor:start;fill:#000000;fill-opacity:1;stroke:none;stroke-width:1.12807226"
           x="141.28224"
           y="196.87886"
           id="text907"
           transform="scale(1.1280723,0.886468)"><tspan
             sodipodi:role="line"
             id="tspan905"
             x="141.28224"
             y="196.87886"
             style="stroke-width:1.12807226">Guess It!</tspan></text>
      </g>
      <rect
         class="cls-7"
         width="400"
         height="225"
         id="rect60"
         x="0"
         y="0"
         style="fill:none" />
    </g>
  </g>
</svg>
